<?xml version="1.0" encoding="UTF-8" standalone="no"?>
<!-- Created with Inkscape (http://www.inkscape.org/) -->

<svg
   xmlns:dc="http://purl.org/dc/elements/1.1/"
   xmlns:cc="http://creativecommons.org/ns#"
   xmlns:rdf="http://www.w3.org/1999/02/22-rdf-syntax-ns#"
   xmlns:svg="http://www.w3.org/2000/svg"
   xmlns="http://www.w3.org/2000/svg"
   xmlns:sodipodi="http://sodipodi.sourceforge.net/DTD/sodipodi-0.dtd"
   xmlns:inkscape="http://www.inkscape.org/namespaces/inkscape"
   width="255"
   height="120"
   id="svg2"
   version="1.1"
   inkscape:version="0.48.4 r9939"
   sodipodi:docname="logo-i.svg">
  <defs
     id="defs4" />
  <sodipodi:namedview
     id="base"
     pagecolor="#ffffff"
     bordercolor="#666666"
     borderopacity="1.0"
     inkscape:pageopacity="0.0"
     inkscape:pageshadow="2"
     inkscape:zoom="2.8"
     inkscape:cx="76.704853"
     inkscape:cy="29.26908"
     inkscape:document-units="px"
     inkscape:current-layer="layer1"
     showgrid="false"
     height="110px"
     inkscape:window-width="1323"
     inkscape:window-height="747"
     inkscape:window-x="43"
     inkscape:window-y="21"
     inkscape:window-maximized="1">
    <inkscape:grid
       type="xygrid"
       id="grid3019"
       empspacing="5"
       visible="true"
       enabled="true"
       snapvisiblegridlinesonly="true" />
  </sodipodi:namedview>
  <metadata
     id="metadata7">
    <rdf:RDF>
      <cc:Work
         rdf:about="">
        <dc:format>image/svg+xml</dc:format>
        <dc:type
           rdf:resource="http://purl.org/dc/dcmitype/StillImage" />
      </cc:Work>
    </rdf:RDF>
  </metadata>
  <g
     inkscape:label="Capa 1"
     inkscape:groupmode="layer"
     id="layer1"
     transform="translate(0,-932.36218)">
    <text
       transform="scale(0.9948845,1.0051418)"
       id="text30"
       x="-3.0162077"
       y="1043.4677"
       style="font-size:14.92326736000000054px;fill:#ffffff;fill-opacity:1;stroke:#ffffff;display:inline;stroke-opacity:1;stroke-width:0.20000000000000001;stroke-miterlimit:4;stroke-dasharray:none">
      <tspan
         style="font-size:83.50090790000000140px;font-variant:normal;font-weight:normal;font-stretch:normal;writing-mode:lr-tb;fill:#ffffff;fill-opacity:1;fill-rule:nonzero;stroke:#ffffff;font-family:Yellowtail;-inkscape-font-specification:Yellowtail;stroke-opacity:1;stroke-width:0.20000000000000001;stroke-miterlimit:4;stroke-dasharray:none"
         x="-3.0162077 44.412289 77.228149 103.69794 125.24118 158.22401 189.36983 215.83961"
         y="1043.4677"
         sodipodi:role="line"
         id="tspan32">Cheluber</tspan>
    </text>
    <path
       sodipodi:type="arc"
       style="fill:none;stroke:#ffffff;stroke-width:16.23897934000000021;stroke-linecap:butt;stroke-linejoin:miter;stroke-miterlimit:4;stroke-opacity:1;stroke-dasharray:none;display:inline"
       id="path3063"
       sodipodi:cx="57.227795"
       sodipodi:cy="333.37979"
       sodipodi:rx="30.471943"
       sodipodi:ry="29.728725"
       d="m 87.699738,333.37979 c 0,16.41872 -13.642754,29.72873 -30.471943,29.72873 -16.82919,0 -30.471943,-13.31001 -30.471943,-29.72873 0,-16.41872 13.642753,-29.72872 30.471943,-29.72872 16.829189,0 30.471943,13.31 30.471943,29.72872 z"
       transform="matrix(0.18314884,0,0,0.18772757,49.358474,913.47066)" />
    <path
       sodipodi:type="arc"
       style="fill:none;stroke:#ffffff;stroke-width:16.23897934000000021;stroke-linecap:butt;stroke-linejoin:miter;stroke-miterlimit:4;stroke-opacity:1;stroke-dasharray:none;display:inline"
       id="path3063-4"
       sodipodi:cx="57.227795"
       sodipodi:cy="333.37979"
       sodipodi:rx="30.471943"
       sodipodi:ry="29.728725"
       d="m 87.699738,333.37979 c 0,16.41872 -13.642754,29.72873 -30.471943,29.72873 -16.82919,0 -30.471943,-13.31001 -30.471943,-29.72873 0,-16.41872 13.642753,-29.72872 30.471943,-29.72872 16.829189,0 30.471943,13.31 30.471943,29.72872 z"
       transform="matrix(0.22028769,0,0,0.23829489,47.462764,867.99863)" />
    <path
       sodipodi:type="arc"
       style="fill:none;stroke:#ffffff;stroke-width:16.23897934000000021;stroke-linecap:butt;stroke-linejoin:miter;stroke-miterlimit:4;stroke-opacity:1;stroke-dasharray:none;display:inline"
       id="path3063-6"
       sodipodi:cx="57.227795"
       sodipodi:cy="333.37979"
       sodipodi:rx="30.471943"
       sodipodi:ry="29.728725"
       d="m 87.699738,333.37979 c 0,16.41872 -13.642754,29.72873 -30.471943,29.72873 -16.82919,0 -30.471943,-13.31001 -30.471943,-29.72873 0,-16.41872 13.642753,-29.72872 30.471943,-29.72872 16.829189,0 30.471943,13.31 30.471943,29.72872 z"
       transform="matrix(0.20235726,0,0,0.20741621,27.678774,893.52891)" />
    <path
       sodipodi:type="arc"
       style="fill:none;stroke:#ffffff;stroke-width:16.23897934000000021;stroke-linecap:butt;stroke-linejoin:miter;stroke-miterlimit:4;stroke-opacity:1;stroke-dasharray:none;display:inline"
       id="path3063-9"
       sodipodi:cx="57.227795"
       sodipodi:cy="333.37979"
       sodipodi:rx="30.471943"
       sodipodi:ry="29.728725"
       d="m 87.699738,333.37979 c 0,16.41872 -13.642754,29.72873 -30.471943,29.72873 -16.82919,0 -30.471943,-13.31001 -30.471943,-29.72873 0,-16.41872 13.642753,-29.72872 30.471943,-29.72872 16.829189,0 30.471943,13.31 30.471943,29.72872 z"
       transform="matrix(0.10631514,0,0,0.10897304,29.458964,947.15795)" />
  </g>
</svg>
